<svg width="237" height="95" viewBox="0 0 237 95" fill="none" xmlns="http://www.w3.org/2000/svg">
<rect width="237" height="95" fill="#FF0000"/>
<path d="M17.1121 80V10H33.1121L38.9121 46L44.6121 10H60.9121V80.1H47.9121V46.3L42.2121 80H35.5121L29.8121 46.6V80H17.1121ZM89.1223 10L99.7223 80H87.0223L85.6223 69.2H75.8223L74.3223 80H61.8223L72.3223 10H89.1223ZM84.3223 58L80.7223 28.6L77.3223 58H84.3223ZM114.525 10C116.858 10 119.058 10.3667 121.125 11.1C123.258 11.8333 125.158 13 126.825 14.6C128.491 16.1333 129.858 18.1333 130.925 20.6C132.058 23.0667 132.791 26.0667 133.125 29.6C133.591 33.9333 133.458 37.5667 132.725 40.5C132.058 43.3667 131.225 45.6667 130.225 47.4C129.091 49.5333 127.725 51.2 126.125 52.4L134.425 80H121.625L115.525 56.5L112.725 57V80H100.125L100.225 10H114.525ZM112.725 44.6C114.258 44.4667 115.525 44.1 116.525 43.5C117.525 42.8333 118.358 42 119.025 41C119.691 40 120.158 38.8667 120.425 37.6C120.691 36.3333 120.825 35.0333 120.825 33.7C120.825 32.3 120.691 30.9333 120.425 29.6C120.158 28.2 119.725 26.9667 119.125 25.9C118.525 24.7667 117.691 23.8667 116.625 23.2C115.625 22.5333 114.325 22.2 112.725 22.2V44.6ZM143.996 10L149.596 52.2L155.496 10H168.096L156.996 80H142.196L130.996 10H143.996ZM168.886 80V10H192.386V22.4H181.786V38.2H192.486V51.2H181.186V67H192.586V80H168.886ZM208.916 9.9V67.4H219.716V80.1H196.516V10L208.916 9.9Z" fill="white"/>
</svg>
